<?xml version="1.0" encoding="UTF-8"?>
<svg id="Layer_1" data-name="Layer 1" xmlns="http://www.w3.org/2000/svg" viewBox="0 0 732.67 732.37">
  <defs>
    <style>
      .cls-1 {
        fill: #fe3e00;
      }

      .cls-2 {
        fill: #fefefe;
      }
    </style>
  </defs>
  <path class="cls-1" d="M346.8.35c142.84-5.99,274.64,66.35,342.18,192.23,120.36,224.32-20.28,501.51-271.11,536.22C181.15,761.54-22.32,565.21,1.97,327.57,20.02,151,168.59,7.82,346.8.35ZM195.16,236.37c-45.33,1.57-69.97,44.69-51.58,85.36,3.7,8.17,9.28,15.82,15.64,22.09-34.71,28.21-25.13,78.4,8.98,102.69,10.36,7.38,22.27,11.65,34.87,13.36,16.08,2.18,37.37,4.67,53.41,5.3,6.29.25,11.38-.5,12.85-7.58l-.24-206.85c-1.18-4.23-4.63-7.51-9.03-8.31-20.71-.73-44.49-6.77-64.9-6.06ZM534.34,236.37c-20.42.57-41.81,4.73-62.24,6.15-4.09.97-7.37,4.21-8.58,8.21l-.24,206.85c1.54,6.92,6.06,7.81,12.33,7.58,15.99-.57,37.41-3.09,53.41-5.31,13.2-1.83,24.52-5.61,35.39-13.36,34.11-24.29,43.68-74.47,8.98-102.69,16.63-16.17,25.52-40.29,20.27-63.27-6.28-27.48-31.62-44.95-59.32-44.18ZM366.31,471.47c-1.33,9.03-10.53,13.37-18.22,16.12-5.98,2.14-12.64,3.57-18.9,4.69-7.28,1.3-16.07,1.34-22.84,2.85-9.72,2.17-7.75,22.5,2.6,23.48,20.19-.72,41.23,1.12,61.33.05,32.82-1.75,60.35-27.93,62.08-61.04,1.84-35.18-.83-71.17-.67-106.31-4.78-30.09-31.32-52.3-61.41-53.88-19.63-1.03-40.1.79-59.82-.02-5.34.02-9.87,4.42-10.22,9.7l.03,153.09c-.02,4.38,4.53,11.28,9.17,11.28h56.88Z"/>
  <path class="cls-2" d="M195.16,236.37c20.41-.71,44.19,5.33,64.9,6.06,4.4.79,7.85,4.07,9.03,8.31l.24,206.85c-1.48,7.08-6.56,7.83-12.85,7.58-16.04-.63-37.33-3.12-53.41-5.3-12.59-1.71-24.51-5.98-34.87-13.36-34.11-24.29-43.69-74.48-8.98-102.69-6.36-6.28-11.95-13.92-15.64-22.09-18.39-40.66,6.25-83.79,51.58-85.36Z"/>
  <path class="cls-2" d="M534.34,236.37c27.7-.77,53.04,16.7,59.32,44.18,5.25,22.98-3.64,47.1-20.27,63.27,34.7,28.22,25.13,78.4-8.98,102.69-10.88,7.75-22.2,11.52-35.39,13.36-16.01,2.22-37.42,4.73-53.41,5.31-6.27.22-10.79-.67-12.33-7.58l.24-206.85c1.21-4,4.48-7.25,8.58-8.21,20.43-1.43,41.82-5.59,62.24-6.15Z"/>
  <path class="cls-2" d="M366.31,471.47h-56.88c-4.64,0-9.19-6.9-9.17-11.28l-.03-153.09c.35-5.28,4.88-9.68,10.22-9.7,19.72.81,40.19-1.01,59.82.02,30.09,1.58,56.63,23.79,61.41,53.88-.16,35.14,2.52,71.13.67,106.31-1.73,33.11-29.26,59.29-62.08,61.04-20.1,1.07-41.13-.77-61.33-.05-10.36-.98-12.32-21.31-2.6-23.48,6.77-1.51,15.55-1.55,22.84-2.85,6.26-1.12,12.92-2.55,18.9-4.69,7.69-2.74,16.89-7.09,18.22-16.12Z"/>
</svg>